# xmcd
#
# Track frame offsets:
#	150
#	10670
#	23417
#	35735
#	52687
#	67012
#	78797
#	91852
#	108505
#	125860
#	140877
#	155697
#	171177
#	180612
#	193840
#	211987
#	222587
#	238372
#	255082
#	270017
#
# Disc length: 3832 seconds
#
# Revision: 1
# Processed by: cddbd v1.5PL3 Copyright (c) Steve Scherf et al.
# Submitted via: CDex 1.50Beta5
#
DISCID=150ef614
DTITLE=Various Artist - アロハ・オエ〜ベスト・オブ・ハワイアン
DYEAR=1900
DGENRE=World -> Japanese Traditional (Minzoku)
TTITLE0=マリヒニ・メレ
TTITLE1=珊瑚礁の彼方
TTITLE2=カイマナ・ヒラ
TTITLE3=ブルー・ハワイ
TTITLE4=ワイカプ
TTITLE5=ブルー・ムウ・ムウ
TTITLE6=小さな竹の橋
TTITLE7=島の歌
TTITLE8=恋人よアロハ
TTITLE9=南国の夜
TTITLE10=月の夜は
TTITLE11=ハワイアン・ウェディング・ソング
TTITLE12=ハワイアン・パラダイス
TTITLE13=リリウ・エ
TTITLE14=スウィート・レイラニ
TTITLE15=ハワイアン・ウォー・チャント
TTITLE16=南海の魅惑の島
TTITLE17=ワイキキの浜辺
TTITLE18=真珠貝の歌
TTITLE19=アロハ・オエ
EXTD=
EXTT0=
EXTT1=
EXTT2=
EXTT3=
EXTT4=
EXTT5=
EXTT6=
EXTT7=
EXTT8=
EXTT9=
EXTT10=
EXTT11=
EXTT12=
EXTT13=
EXTT14=
EXTT15=
EXTT16=
EXTT17=
EXTT18=
EXTT19=
PLAYORDER=
